<svg width="79" height="25" viewBox="0 0 79 25" fill="none" xmlns="http://www.w3.org/2000/svg">
<g id="Layer_1" clip-path="url(#clip0_3_10)">
<path id="Vector" d="M28.4268 22.1694C28.4268 22.3413 28.5123 22.5122 28.6837 22.6836L29.4549 23.4548C29.6263 23.6268 29.7118 23.7977 29.7118 23.9691V24.1298C29.7118 24.3442 29.6043 24.4512 29.3904 24.4512H23.9267C23.7122 24.4512 23.6053 24.3442 23.6053 24.1298V23.9691C23.6053 23.7977 23.6907 23.6268 23.8622 23.4548L24.6333 22.6836C24.8048 22.5122 24.8902 22.3413 24.8902 22.1694V3.78438C24.8902 3.67743 24.8633 3.59145 24.8096 3.5275C24.7559 3.46301 24.6973 3.37756 24.6328 3.27062L24.183 2.59565C24.1185 2.48871 24.0594 2.39251 24.0062 2.30653C23.9524 2.22108 23.9256 2.12489 23.9256 2.01741V1.85672C23.9256 1.68529 24.0325 1.5676 24.2469 1.50312L28.1377 0.0241914C28.3306 -0.0402966 28.4268 0.0241914 28.4268 0.217118V22.1694Z" fill="white"/>
<path id="Vector_2" d="M48.2896 22.2657C47.6039 23.0804 46.8376 23.7016 45.9917 24.1299C45.1448 24.5583 44.0791 24.7727 42.7936 24.7727C41.5082 24.7727 40.4044 24.5744 39.3543 24.1783C38.3042 23.7823 37.3987 23.2142 36.6383 22.4748C35.8773 21.7353 35.283 20.8518 34.8546 19.8232C34.4258 18.7946 34.2119 17.6591 34.2119 16.4161C34.2119 15.1731 34.4097 14.0376 34.8063 13.009C35.2023 11.9804 35.7596 11.1023 36.4776 10.3736C37.195 9.64542 38.0629 9.08276 39.0813 8.68616C40.0986 8.2901 41.2293 8.0918 42.4723 8.0918C44.2505 8.0918 45.6489 8.5631 46.6667 9.50623C47.684 10.4494 48.4073 11.7031 48.8362 13.267C48.9431 13.6528 48.7824 13.8995 48.3541 14.0064C47.7324 14.1349 46.9827 14.36 46.104 14.6814C45.2254 15.0028 44.336 15.4101 43.4364 15.9029C42.5362 16.3962 41.663 16.9691 40.8171 17.6226C39.9702 18.2766 39.2688 19.0209 38.7116 19.8565C38.4756 20.1994 38.4434 20.5745 38.6154 20.9813C38.8722 21.5171 39.1721 21.9615 39.5155 22.3151C39.8578 22.6688 40.2227 22.9579 40.6086 23.1831C40.9944 23.4082 41.3744 23.5689 41.7495 23.6651C42.124 23.7613 42.4728 23.8097 42.7942 23.8097C44.6369 23.8097 46.1368 23.1884 47.2938 21.9454C47.5292 21.6885 47.7968 21.5596 48.0972 21.5596C48.2687 21.5596 48.3756 21.6348 48.4186 21.7847C48.4611 21.9347 48.4186 22.0954 48.2902 22.2668L48.2896 22.2657ZM38.358 18.634C38.7648 18.1197 39.2629 17.6108 39.8525 17.1072C40.4415 16.6042 41.0788 16.1324 41.7651 15.6928C42.4508 15.2537 43.1736 14.8523 43.9345 14.4874C44.695 14.123 45.4398 13.8124 46.1685 13.5555C46.5968 13.4061 46.7683 13.1272 46.6828 12.7199C46.5544 12.0562 46.3502 11.4935 46.0723 11.0324C45.7934 10.5719 45.4667 10.1968 45.0921 9.90767C44.717 9.61855 44.3048 9.40466 43.8545 9.26494C43.4047 9.12575 42.9436 9.05589 42.4723 9.05589C42.001 9.05589 41.4545 9.16821 40.8972 9.39338C40.3399 9.61855 39.831 10.0151 39.3704 10.5826C38.9093 11.1507 38.5235 11.9057 38.2134 12.8489C37.9028 13.792 37.7475 14.9813 37.7475 16.4167C37.7475 16.8025 37.7636 17.1669 37.7958 17.5097C37.8281 17.8526 37.8652 18.1847 37.9082 18.5061C37.9726 18.9134 38.122 18.9559 38.358 18.6345V18.634Z" fill="white"/>
<path id="Vector_3" d="M65.7749 10.0195C65.8174 9.89105 65.7535 9.76261 65.582 9.63364L64.8109 9.0871C64.6824 8.98016 64.6179 8.86193 64.6179 8.73349V8.60505C64.6179 8.45566 64.6926 8.37988 64.8431 8.37988H67.9289C68.0143 8.37988 68.0788 8.40138 68.1218 8.44437C68.2072 8.55185 68.1863 8.70125 68.0573 8.89417C67.9289 9.0871 67.7359 9.28003 67.4785 9.47295L67.1894 9.66588C67.0174 9.77336 66.9003 9.8803 66.8358 9.98725C66.7713 10.0947 66.7283 10.1802 66.7073 10.2441L61.7256 23.8398C61.5757 24.2471 61.286 24.4503 60.8577 24.4503H59.0257C58.5969 24.4503 58.3078 24.2471 58.1578 23.8398L53.2401 10.2441C53.1971 10.1796 53.1487 10.0942 53.0955 9.98725C53.0418 9.8803 52.9295 9.77336 52.7581 9.66588L51.9546 9.0871C51.8262 8.98016 51.7617 8.86193 51.7617 8.73349V8.60505C51.7617 8.45566 51.8364 8.37988 51.9869 8.37988H57.8042C57.9536 8.37988 58.0294 8.45512 58.0294 8.60505V8.6373C58.0294 8.85172 57.8365 9.09839 57.4506 9.37676C57.0433 9.65567 56.8719 9.89105 56.9363 10.084L61.0824 21.5908C61.2318 21.9981 61.3822 21.9981 61.5322 21.5908L65.7749 10.02V10.0195Z" fill="white"/>
<path id="Vector_4" d="M76.8315 22.1694C76.8315 22.3413 76.9169 22.5122 77.0884 22.6836L77.8595 23.4548C78.031 23.6268 78.1164 23.7977 78.1164 23.9691V24.1298C78.1164 24.3442 78.0089 24.4512 77.795 24.4512H72.3308C72.1163 24.4512 72.0094 24.3442 72.0094 24.1298V23.9691C72.0094 23.7977 72.0948 23.6268 72.2663 23.4548L73.0374 22.6836C73.2089 22.5122 73.2943 22.3413 73.2943 22.1694V3.78438C73.2943 3.67743 73.2669 3.59145 73.2137 3.5275C73.16 3.46301 73.1014 3.37756 73.0369 3.27062L72.5871 2.59565C72.5226 2.48871 72.4635 2.39251 72.4103 2.30653C72.3566 2.22108 72.3297 2.12489 72.3297 2.01741V1.85672C72.3297 1.68529 72.4366 1.5676 72.6511 1.50312L76.5424 0.0241914C76.7353 -0.0402966 76.8315 0.0241914 76.8315 0.217118V22.1694Z" fill="white"/>
<path id="Vector_5" d="M1.25324 20.7356C1.80569 21.6475 2.45326 22.3918 3.19648 22.9647C3.9397 23.5386 4.75763 23.9626 5.64917 24.2394C6.54072 24.5145 7.45484 24.6532 8.38884 24.6532C9.32284 24.6532 10.4068 24.4302 11.5106 23.9836C12.6155 23.5381 13.6242 22.7508 14.5372 21.6266C15.4513 20.5012 16.2161 19.003 16.8314 17.1344C17.4478 15.2648 17.7546 12.9078 17.7546 10.0633C17.7546 9.29862 17.7229 8.57528 17.6595 7.89708C17.5956 7.21673 17.5219 6.55949 17.4365 5.9216C17.3097 5.11442 17.013 5.03005 16.545 5.66687C15.7389 6.68632 14.7511 7.69448 13.5823 8.6935C12.4145 9.69146 11.1516 10.626 9.79091 11.4971C8.43237 12.3672 6.99858 13.1631 5.49064 13.8869C3.98377 14.6087 2.50753 15.2245 1.06247 15.734C0.213374 16.0306 -0.125725 16.5831 0.0430187 17.3913C0.297746 18.7063 0.702408 19.822 1.25378 20.7361L1.25324 20.7356Z" fill="white"/>
</g>
<defs>
<clipPath id="clip0_3_10">
<rect width="78.1169" height="24.773" fill="white"/>
</clipPath>
</defs>
</svg>
